<?xml version="1.0" standalone="no"?>
<!DOCTYPE svg PUBLIC "-//W3C//DTD SVG 20010904//EN"
 "http://www.w3.org/TR/2001/REC-SVG-20010904/DTD/svg10.dtd">
<svg version="1.0" xmlns="http://www.w3.org/2000/svg"
 width="512.000000pt" height="512.000000pt" viewBox="0 0 512.000000 512.000000"
 preserveAspectRatio="xMidYMid meet">

<g transform="translate(0.000000,512.000000) scale(0.100000,-0.100000)"
fill="#000000" stroke="none">
<path d="M2465 5103 c-135 -49 -214 -169 -202 -307 3 -33 8 -69 12 -78 5 -13
-1 -18 -32 -23 -874 -149 -1544 -842 -1657 -1713 -9 -73 -16 -197 -16 -303 l0
-179 -38 0 c-107 0 -231 -93 -267 -199 -38 -115 0 -253 90 -327 88 -72 61 -69
657 -72 l537 -3 -8 -23 c-5 -12 -28 -117 -51 -232 -23 -115 -43 -216 -46 -224
-2 -8 -23 -26 -45 -40 -132 -81 -236 -265 -256 -455 l-8 -70 -163 -108 c-134
-88 -166 -114 -178 -143 -8 -19 -12 -45 -8 -57 3 -12 91 -136 195 -275 188
-250 209 -272 263 -272 14 0 165 97 372 239 239 163 373 248 426 270 213 89
410 272 531 495 31 57 37 61 337 261 168 111 373 244 455 295 216 134 232 146
260 194 14 24 28 67 32 95 l6 50 491 3 491 3 57 28 c135 66 201 224 153 368
-36 106 -160 199 -267 199 l-38 0 0 179 c0 357 -58 624 -200 916 -255 527
-738 921 -1300 1060 -74 19 -152 37 -173 40 -31 5 -37 9 -32 23 4 9 9 46 12
82 13 166 -111 305 -279 316 -44 3 -78 -1 -113 -13z m144 -197 c67 -35 65
-143 -4 -174 -51 -23 -107 -7 -131 39 -26 51 -12 103 34 132 33 20 65 21 101
3z m122 -396 c346 -35 662 -162 934 -374 109 -86 276 -261 357 -376 115 -163
212 -367 263 -555 27 -96 55 -243 55 -282 l0 -23 -365 0 -366 0 -24 -24 c-34
-34 -41 -71 -21 -113 29 -61 43 -63 436 -63 l350 0 0 -100 0 -100 -1791 0
-1792 0 6 223 c5 232 16 314 62 485 132 481 484 904 940 1128 296 145 633 206
956 174z m1910 -2239 c40 -40 40 -89 0 -133 l-29 -33 -2052 0 -2052 0 -29 33
c-40 44 -40 93 0 133 l29 29 2052 0 2052 0 29 -29z m-2720 -394 c58 -39 62
-69 34 -278 -32 -234 -32 -243 4 -280 55 -55 48 -58 646 276 l547 305 148 0
c129 0 149 -2 154 -17 9 -23 -7 -36 -189 -149 -88 -54 -307 -197 -487 -316
-318 -211 -328 -219 -354 -270 -104 -207 -255 -359 -440 -444 -112 -51 -96
-41 -420 -259 -162 -110 -299 -200 -304 -200 -9 0 -234 295 -228 299 2 2 64
44 138 93 74 50 141 97 149 107 8 9 17 57 21 118 14 186 75 297 203 371 41 24
69 49 76 65 6 15 33 138 61 274 27 136 54 257 60 268 17 31 70 60 111 60 21 0
50 -10 70 -23z m808 19 c-9 -9 -561 -316 -568 -316 -4 0 -1 47 7 104 12 89 12
112 -1 160 l-14 56 290 0 c160 0 288 -2 286 -4z"/>
<path d="M1876 4095 c-60 -21 -183 -96 -265 -162 -93 -74 -184 -170 -253 -268
-63 -88 -158 -279 -165 -332 -5 -35 -1 -45 25 -74 25 -28 37 -34 70 -34 54 0
82 28 116 113 88 217 273 424 484 539 42 23 87 54 100 68 30 35 29 85 -3 123
-30 35 -61 43 -109 27z"/>
<path d="M3164 2911 c-12 -5 -31 -22 -44 -38 -47 -60 -1 -153 76 -153 46 0 70
14 89 50 22 43 18 76 -12 110 -30 32 -75 45 -109 31z"/>
</g>
</svg>
