<?xml version="1.0" encoding="UTF-8" standalone="no"?>
<!-- Created with Inkscape (http://www.inkscape.org/) -->

<svg
   version="1.1"
   id="svg2"
   width="742.66669"
   height="696"
   viewBox="0 0 742.66669 696"
   sodipodi:docname="logo hispaniola.eps"
   xmlns:inkscape="http://www.inkscape.org/namespaces/inkscape"
   xmlns:sodipodi="http://sodipodi.sourceforge.net/DTD/sodipodi-0.dtd"
   xmlns="http://www.w3.org/2000/svg"
   xmlns:svg="http://www.w3.org/2000/svg">
  <defs
     id="defs6" />
  <sodipodi:namedview
     id="namedview4"
     pagecolor="#ffffff"
     bordercolor="#000000"
     borderopacity="0.25"
     inkscape:showpageshadow="2"
     inkscape:pageopacity="0.0"
     inkscape:pagecheckerboard="0"
     inkscape:deskcolor="#d1d1d1" />
  <g
     id="g8"
     inkscape:groupmode="layer"
     inkscape:label="ink_ext_XXXXXX"
     transform="matrix(1.3333333,0,0,-1.3333333,0,696)">
    <g
       id="g10"
       transform="scale(0.1)">
      <path
         d="M 2740.78,5207.89 C 2712.81,5192.89 82.8086,2560.86 44.8008,2509.88 c -51.01174,-70 -60,-184.02 -19.0195,-265 C 60.7813,2175.86 2221.8,15.8594 2263.79,7.89063 2324.8,-2.10938 2361.8,16.8789 2440.78,97.8906 2481.8,140.859 2574.8,236.879 2647.81,311.879 l 130.98,136.992 216.99,-218.012 c 190,-191.9879 221.02,-218.9801 255,-224.99962 25,-3.98047 48.01,-1.98829 65,8.01172 44.02,23.0078 2193.01,2174.9989 2223.01,2226.0089 23.01,38.99 26.99,57 26.99,120.98 0,64.02 -3.98,82.03 -26.99,120 -28.01,47.03 -2675.98,2708.01 -2715,2728.01 -28.01,15 -51.99,15 -83.01,-0.98 z m 80,-697.03 c 16.02,-7.97 82.03,-86.99 433.01,-518.98 129.02,-157 156.01,-190 301.99,-368.01 77.03,-93.01 205,-250 285,-348.01 156.02,-191.99 302.03,-368.98 532.03,-645.98 80,-96.99 152.97,-190 161.99,-206.99 20.98,-40 20,-101.01 -1.01,-132.03 -15,-21.99 -518.99,-531.99 -1465.98,-1485.001 l -288.01,-290 -351.01,355 c -193.01,195.001 -583.01,589.021 -865.98,875.001 -283.01,286.02 -524.02,533.01 -534.02,550 -21.99,37.03 -23.01,90 0,132.03 9.02,16.99 111.99,145 226.99,285 276.02,331.99 439.02,530 730,886.99 132.03,162 317.03,387 410,500 94.02,113.01 207.03,252 252.03,308.01 45.98,55 87.97,102.97 95,105.98 21.99,9.02 57.97,6.99 77.97,-3.01 z"
         style="fill:#000000;fill-opacity:1;fill-rule:nonzero;stroke:none"
         id="path12" />
      <path
         d="m 2726.8,4099.88 c -36.02,-28 -83.01,-88 -567,-709.02 -751.99,-965 -699.02,-888.98 -698,-1000 0,-77.97 13,-116.99 63.98,-193.98 41.02,-63.01 536.02,-571.02 703.01,-722 183.01,-166.01 311.99,-210 591.01,-201.99 190.98,5.98 278.01,30 395.98,110 88.01,57.97 722.03,686.99 805,796.99 59.02,78.01 80,133.99 80,210 0,98.01 3.01,93.01 -435,660.98 -103.98,135 -270,349.02 -370,475 -98.98,127.03 -235.98,301.02 -302.97,387.03 -68.01,86.99 -137.03,168.99 -153.01,182.97 -36.99,30 -76.99,32.03 -113,4.02 z m 76.01,-790 c 26.99,-11.99 18.99,-1.01 197.97,-264.02 455,-665.98 480,-706.99 480,-775.98 0,-21.01 -11.99,-59.02 -26.99,-88 -55.98,-105 -460.98,-502 -556.99,-547 -38.99,-18 -68.01,-24.02 -121.02,-24.02 -75,0 -121.99,17.03 -185,64.02 -66.99,50.98 -461.99,450.98 -487.97,495.98 -42.03,70 -38.01,139.02 11.99,221.02 80,131.01 572,853.98 607,891.01 38.98,40.98 46.01,43.99 81.01,26.99 z"
         style="fill:#000000;fill-opacity:1;fill-rule:nonzero;stroke:none"
         id="path14" />
    </g>
  </g>
</svg>
