<?xml version="1.0" standalone="no"?>
<!DOCTYPE svg PUBLIC "-//W3C//DTD SVG 20010904//EN"
 "http://www.w3.org/TR/2001/REC-SVG-20010904/DTD/svg10.dtd">
<svg version="1.0" xmlns="http://www.w3.org/2000/svg"
 width="512.000000pt" height="512.000000pt" viewBox="0 0 512.000000 512.000000"
 preserveAspectRatio="xMidYMid meet">

<g transform="translate(0.000000,512.000000) scale(0.100000,-0.100000)"
fill="#000000" stroke="none">
<path d="M1010 4565 c-235 -66 -352 -323 -245 -541 15 -31 51 -76 85 -107 193
-179 490 -119 603 121 29 60 32 77 32 158 0 84 -2 95 -38 166 -43 89 -92 136
-184 180 -77 36 -173 45 -253 23z"/>
<path d="M4955 4478 c-475 -207 -1031 -345 -1605 -399 -175 -17 -696 -17 -865
0 -282 27 -569 74 -777 127 -53 13 -101 24 -107 24 -6 0 -11 -21 -11 -48 0
-99 -46 -219 -117 -301 -30 -36 -32 -41 -17 -55 22 -22 82 -21 102 3 15 17
200 232 257 298 33 38 62 22 81 -46 8 -31 44 -148 80 -260 55 -171 68 -201 79
-190 24 25 178 242 240 336 50 77 64 93 86 93 24 0 30 -11 89 -152 35 -84 75
-178 89 -208 l27 -55 44 3 c25 2 50 9 57 15 9 10 73 122 197 350 30 55 48 38
137 -129 46 -86 90 -158 97 -161 18 -8 159 17 176 31 14 11 126 274 126 295 0
6 13 11 28 11 25 0 38 -14 106 -115 43 -63 84 -115 90 -115 14 0 235 66 241
72 3 2 62 201 70 235 0 1 11 4 25 7 22 6 33 -3 89 -74 35 -44 68 -80 73 -80 7
0 108 40 270 107 35 15 37 19 48 82 15 92 18 98 43 105 17 4 33 -5 69 -41 l47
-46 102 57 c192 107 259 155 259 183 0 19 8 28 40 40 38 15 49 27 33 36 -5 3
-48 -13 -98 -35z"/>
<path d="M4990 4359 c-526 -354 -1238 -606 -2041 -723 -261 -38 -444 -55 -757
-68 -218 -9 -282 -15 -282 -25 0 -10 40 -13 183 -13 l182 -1 137 -200 136
-200 67 138 c36 76 85 177 107 226 l41 87 43 0 43 0 152 -185 c84 -101 154
-183 156 -182 1 2 41 104 87 228 l84 224 54 12 53 13 172 -174 172 -173 15 51
c8 28 38 135 66 237 l52 186 49 16 50 16 177 -141 c97 -78 183 -145 190 -151
7 -5 14 -8 16 -6 2 2 18 99 35 214 43 284 36 262 81 285 22 11 46 20 53 20 8
0 107 -52 221 -115 114 -63 209 -115 212 -115 4 0 5 108 3 240 l-4 239 61 43
c37 25 60 47 57 55 -3 7 -8 13 -12 13 -3 0 -53 -32 -111 -71z"/>
<path d="M730 3710 c-77 -13 -142 -50 -211 -120 -134 -135 -215 -368 -249
-715 -12 -123 -12 -614 -1 -675 13 -65 65 -110 127 -110 29 0 59 8 79 20 57
35 60 56 57 345 -4 263 6 421 34 575 18 101 60 247 74 255 7 4 10 -83 10 -245
l0 -250 -39 -28 c-27 -18 -41 -36 -44 -57 -2 -16 -4 -31 -3 -32 1 -1 19 9 40
23 21 14 39 24 40 22 29 -36 296 -439 296 -445 0 -10 -539 -375 -557 -377 -7
-1 -80 98 -162 219 l-150 219 74 51 c62 41 74 55 75 78 0 15 -2 27 -5 27 -3 0
-53 -32 -110 -70 l-105 -71 177 -264 c98 -145 182 -264 187 -265 6 0 69 41
142 90 73 50 135 90 138 90 3 0 6 -293 6 -650 0 -624 1 -652 19 -689 77 -149
278 -159 366 -17 l30 49 3 799 2 798 40 0 40 0 0 -795 c0 -768 1 -797 19 -834
77 -150 283 -158 368 -13 l28 47 5 1300 5 1300 27 -80 c60 -181 79 -360 79
-743 l-1 -303 33 -36 c66 -71 185 -52 220 35 23 56 32 384 18 602 -20 293 -64
495 -143 660 -56 113 -164 226 -253 261 -59 23 -67 23 -420 25 -198 1 -380 -1
-405 -6z m449 -168 c26 -94 26 -99 -7 -116 -39 -20 -94 -20 -132 -1 -17 9 -30
18 -30 21 0 3 7 34 16 69 l16 65 64 0 63 0 10 -38z m-1 -193 c1 -8 22 -160 46
-339 l44 -325 -53 -70 c-30 -38 -67 -85 -82 -103 l-28 -33 -75 95 c-41 53 -76
105 -78 116 -3 17 70 593 83 655 4 18 12 20 72 19 48 -1 69 -6 71 -15z"/>
<path d="M591 2547 c-8 -10 11 -44 80 -143 50 -71 92 -128 95 -127 2 1 10 3
16 5 7 3 -16 45 -57 104 -123 177 -122 175 -134 161z"/>
<path d="M2056 2343 c-3 -21 -6 -64 -6 -95 l0 -58 265 0 265 0 0 95 0 95 -259
0 -258 0 -7 -37z"/>
<path d="M3640 2285 l0 -95 380 0 380 0 0 95 0 95 -380 0 -380 0 0 -95z"/>
<path d="M570 2325 c0 -36 67 -136 86 -128 8 3 14 7 14 10 0 3 -22 37 -50 76
-45 64 -50 68 -50 42z"/>
<path d="M2015 2101 c-8 -27 -71 -80 -114 -98 -52 -22 -138 -20 -188 5 l-43
20 0 -384 0 -384 1610 0 1610 0 0 40 0 40 -135 0 -135 0 0 390 0 390 -1299 0
c-1277 0 -1300 0 -1306 -19z"/>
</g>
</svg>
