<?xml version="1.0" standalone="no"?>
<!DOCTYPE svg PUBLIC "-//W3C//DTD SVG 20010904//EN"
 "http://www.w3.org/TR/2001/REC-SVG-20010904/DTD/svg10.dtd">
<svg version="1.0" xmlns="http://www.w3.org/2000/svg"
 width="512.000000pt" height="512.000000pt" viewBox="0 0 512.000000 512.000000"
 preserveAspectRatio="xMidYMid meet">

<g transform="translate(0.000000,512.000000) scale(0.100000,-0.100000)"
fill="#000000" stroke="none">
<path d="M27 4952 c-15 -16 -17 -45 -17 -195 0 -170 1 -176 22 -191 20 -14 97
-16 635 -16 l613 0 0 -69 0 -69 -172 -4 -173 -3 -63 -34 c-107 -58 -170 -152
-179 -265 -8 -95 -6 -96 244 -96 l203 0 0 -65 c0 -78 16 -119 61 -162 43 -40
77 -53 142 -53 118 1 197 94 197 233 l0 47 200 0 201 0 26 26 c22 22 24 30 18
72 -17 116 -99 227 -203 275 -41 19 -68 22 -219 25 l-173 4 0 69 0 69 1170 0
1170 0 0 -69 0 -69 -172 -4 c-167 -3 -175 -5 -231 -33 -108 -54 -188 -172
-191 -281 0 -32 4 -58 12 -66 10 -10 67 -14 222 -16 l210 -3 0 -47 c0 -149 84
-239 215 -230 72 4 117 30 156 86 19 28 25 51 28 114 l3 78 200 0 c117 0 207
4 218 10 34 18 41 43 29 106 -25 134 -110 230 -239 268 -38 12 -96 16 -202 16
l-148 0 0 70 0 70 618 0 c587 0 620 1 635 18 15 16 17 45 17 194 0 157 -2 177
-18 191 -17 16 -207 17 -2534 17 -2424 0 -2516 -1 -2531 -18z m4973 -192 l0
-100 -2440 0 -2440 0 0 100 0 100 2440 0 2440 0 0 -100z m-3284 -475 c53 -16
109 -66 138 -122 l17 -33 -531 0 -531 0 6 23 c18 56 73 108 143 133 56 20 689
20 758 -1z m2439 4 c66 -17 155 -102 155 -149 0 -7 -165 -10 -525 -10 -365 0
-525 3 -525 11 0 49 83 126 160 150 41 12 685 11 735 -2z m-2728 -341 c-5 -51
-10 -67 -32 -85 -29 -25 -61 -29 -98 -12 -32 15 -47 49 -47 109 l0 50 91 0 92
0 -6 -62z m2443 2 c0 -75 -27 -110 -85 -110 -58 0 -85 35 -85 110 l0 60 85 0
85 0 0 -60z"/>
<path d="M763 3200 c-69 -34 -105 -72 -137 -140 -20 -43 -21 -64 -24 -427 l-3
-383 -95 0 -95 0 3 73 3 72 40 3 c69 6 96 51 55 92 -18 18 -33 20 -153 20
-117 0 -136 -2 -150 -18 -20 -22 -22 -63 -5 -80 7 -7 31 -12 55 -12 l43 0 0
-109 c0 -153 -3 -150 169 -153 l135 -3 13 -50 c7 -27 13 -53 13 -57 0 -5 -119
-8 -265 -8 -292 0 -311 -3 -340 -60 -23 -44 -21 -261 2 -301 21 -36 69 -59
122 -59 l41 0 0 -708 c0 -674 1 -710 18 -725 15 -14 42 -17 150 -17 119 0 134
2 152 20 20 20 20 33 20 725 l0 705 300 0 300 0 0 -44 0 -45 -199 -3 -199 -3
-39 -31 c-60 -47 -85 -105 -81 -185 4 -80 35 -132 101 -170 41 -23 48 -24 305
-27 l262 -3 0 -263 0 -263 -144 -5 c-133 -5 -148 -7 -207 -35 -115 -54 -192
-157 -205 -276 -6 -47 -4 -61 11 -77 22 -24 58 -26 76 -4 8 9 19 44 26 78 17
80 55 133 122 168 51 27 60 28 187 28 l134 0 0 -123 c0 -134 11 -167 54 -167
47 0 56 26 56 163 l0 127 137 0 c118 0 143 -3 180 -21 76 -37 133 -124 133
-203 0 -31 32 -66 59 -66 39 0 54 29 48 96 -6 81 -38 146 -102 210 -76 76
-134 95 -312 102 l-143 5 0 263 0 264 243 0 c257 0 301 6 355 47 108 82 100
273 -15 345 -36 21 -51 23 -233 28 l-195 5 -3 43 -3 42 1020 0 1021 0 0 -44 0
-45 -198 -3 c-196 -3 -199 -3 -239 -30 -113 -75 -116 -270 -4 -345 56 -38 96
-43 349 -43 l242 0 0 -265 0 -265 -102 0 c-178 0 -261 -23 -344 -94 -86 -73
-143 -247 -99 -296 39 -43 95 -10 95 55 0 46 43 128 84 162 53 43 97 53 240
53 l126 0 0 -128 c0 -112 2 -131 18 -145 24 -22 55 -21 75 1 14 15 17 41 17
146 l0 127 143 -3 c140 -3 145 -4 193 -33 59 -37 101 -102 110 -170 8 -57 27
-85 59 -85 40 0 59 33 52 95 -12 121 -88 223 -204 277 -61 29 -75 31 -209 36
l-144 5 0 263 0 263 263 3 264 3 48 30 c116 72 130 241 28 337 -45 43 -72 48
-269 48 l-184 0 0 45 0 45 300 0 300 0 0 -703 c0 -620 2 -705 16 -725 14 -21
22 -22 153 -22 121 0 140 2 154 18 16 17 17 82 17 724 l0 706 56 4 c46 4 61
10 87 37 l32 31 3 129 c3 103 0 135 -12 160 -30 58 -47 61 -341 61 -146 0
-265 1 -265 3 1 1 7 27 14 57 l12 55 143 5 c111 4 144 8 151 20 5 8 10 66 10
128 l0 112 43 0 c50 0 67 13 67 51 0 52 -19 59 -161 59 -72 0 -139 -5 -150
-10 -22 -12 -27 -68 -7 -88 7 -7 31 -12 55 -12 l43 0 0 -75 0 -75 -95 0 -94 0
-3 388 -3 387 -27 51 c-33 63 -95 118 -156 138 -68 24 -1026 24 -1094 0 -61
-20 -117 -70 -153 -135 l-30 -54 -3 -387 -3 -388 -95 0 -95 0 3 73 3 72 43 3
c31 2 46 9 57 26 18 27 7 69 -20 80 -9 3 -74 6 -145 6 -141 0 -160 -7 -160
-59 0 -38 17 -51 67 -51 l43 0 0 -113 c0 -150 -5 -146 170 -149 l134 -3 12
-55 c7 -30 13 -56 14 -57 0 -2 -234 -3 -519 -3 l-519 0 8 32 c4 18 11 45 14
61 l6 27 139 0 c102 0 141 3 149 13 6 7 13 64 14 128 l3 114 42 3 c30 2 47 10
58 25 20 29 19 43 -5 67 -18 18 -33 20 -153 20 -117 0 -136 -2 -150 -18 -20
-22 -22 -63 -5 -80 7 -7 31 -12 55 -12 l43 0 0 -75 0 -75 -95 0 -95 0 0 373
c0 421 -1 432 -72 512 -22 25 -59 56 -82 68 -41 22 -46 22 -566 25 l-525 3
-62 -31z m1090 -94 c43 -17 95 -78 102 -118 3 -18 5 -224 3 -458 -3 -405 -4
-427 -24 -476 -32 -79 -81 -141 -146 -190 -94 -69 -129 -76 -393 -81 -259 -5
-360 4 -437 39 -79 37 -161 117 -200 196 l-33 67 0 465 0 465 24 34 c13 18 42
42 65 52 38 17 75 19 524 19 383 0 489 -3 515 -14z m2480 -19 c73 -56 72 -46
75 -487 2 -232 -1 -421 -7 -459 -20 -127 -102 -246 -211 -305 -89 -49 -165
-58 -445 -52 -225 4 -256 7 -308 26 -60 22 -132 72 -173 118 -42 48 -83 136
-93 202 -14 86 -14 812 -1 862 13 47 55 96 95 114 24 11 130 13 531 11 l501
-2 36 -28z m-3581 -1251 c40 -40 91 -83 113 -94 l40 -21 -392 -1 -393 0 0 95
0 95 280 0 280 0 72 -74z m2441 8 c34 -37 86 -80 117 -98 l55 -31 -403 -3
c-222 -1 -581 -1 -798 0 l-395 3 73 51 c40 28 89 72 108 97 l35 46 573 1 573
0 62 -66z m1805 -31 l-3 -98 -390 -2 c-347 -2 -388 -1 -370 13 11 8 47 34 80
58 33 24 74 62 90 85 l30 41 283 0 283 0 -3 -97z m-3568 -223 l0 -81 -92 3
-93 3 -3 78 -3 77 96 0 95 0 0 -80z m2448 3 l-3 -78 -90 0 -90 0 -3 78 -3 77
96 0 96 0 -3 -77z m-3458 -663 l0 -670 -60 0 -60 0 0 670 0 670 60 0 60 0 0
-670z m4400 0 l0 -670 -55 0 -55 0 0 670 0 670 55 0 55 0 0 -670z m-2895 446
c36 -36 42 -73 19 -115 -13 -24 -31 -40 -54 -48 -43 -15 -1033 -18 -1095 -3
-21 5 -47 19 -57 32 -31 40 -20 114 21 145 12 9 152 12 579 13 l563 0 24 -24z
m2448 -1 c33 -34 40 -72 19 -115 -12 -24 -28 -39 -52 -47 -46 -16 -1047 -18
-1102 -3 -47 14 -68 43 -68 98 0 32 6 49 25 67 l24 25 564 0 564 0 26 -25z"/>
</g>
</svg>
